<svg id="Layer_1" data-name="Layer 1" xmlns="http://www.w3.org/2000/svg" viewBox="0 0 60 60"><defs><style>.cls-1{fill:#088ab6;}.cls-2{fill:#fff;}</style></defs><title>Bank</title><circle class="cls-1" cx="30" cy="30" r="29"/><path class="cls-2" d="M30,2A28,28,0,1,1,2,30,28,28,0,0,1,30,2m0-2A30,30,0,1,0,60,30,30,30,0,0,0,30,0Z"/><g id="Layer_1-2" data-name="Layer 1"><path class="cls-2" d="M45.46,43.87H14.52a1.55,1.55,0,0,0,0,3.1H45.46a1.55,1.55,0,0,0,0-3.1Z"/><path class="cls-2" d="M16.46,39.85a1.55,1.55,0,1,0,0,3.09H43.53a1.55,1.55,0,1,0,0-3.09h-.39V25.92h.39a.77.77,0,0,0,0-1.54H16.46a.77.77,0,1,0,0,1.54h.38V39.85ZM40.05,25.92V39.85H35.41V25.92Zm-7.74,0V39.85H27.67V25.92Zm-12.37,0h4.64V39.85H19.94Z"/><path class="cls-2" d="M14.52,23h31A1.56,1.56,0,0,0,47,21.44,1.54,1.54,0,0,0,46,20L30.63,13.07a1.56,1.56,0,0,0-1.27,0L13.89,20a1.55,1.55,0,0,0,.63,3Z"/></g></svg>